<mxfile host="app.diagrams.net" agent="Mozilla/5.0 (Macintosh; Intel Mac OS X 10_15_7) AppleWebKit/537.36 (KHTML, like Gecko) Chrome/135.0.0.0 Safari/537.36" version="26.2.9">
  <diagram name="Page-1" id="L8zHWifdVu_fOh3l2c9y">
    <mxGraphModel dx="1654" dy="901" grid="1" gridSize="10" guides="1" tooltips="1" connect="1" arrows="1" fold="1" page="1" pageScale="1" pageWidth="850" pageHeight="1100" math="0" shadow="0">
      <root>
        <mxCell id="0" />
        <mxCell id="1" parent="0" />
        <mxCell id="uPG0emXFFRcszsX7qazF-35" value="" style="rounded=0;whiteSpace=wrap;html=1;movable=0;resizable=0;rotatable=0;deletable=0;editable=0;locked=1;connectable=0;" parent="1" vertex="1">
          <mxGeometry x="70" y="40" width="1000" height="710" as="geometry" />
        </mxCell>
        <mxCell id="uPG0emXFFRcszsX7qazF-20" value="" style="rounded=1;whiteSpace=wrap;html=1;fillColor=#e1d5e7;strokeColor=#9673a6;strokeWidth=2;" parent="1" vertex="1">
          <mxGeometry x="599.79" y="340" width="345" height="290" as="geometry" />
        </mxCell>
        <mxCell id="uPG0emXFFRcszsX7qazF-18" value="" style="rounded=1;whiteSpace=wrap;html=1;fillColor=#d5e8d4;strokeColor=#82b366;movable=1;resizable=1;rotatable=1;deletable=1;editable=1;locked=0;connectable=1;strokeWidth=2;" parent="1" vertex="1">
          <mxGeometry x="210" y="340" width="330" height="280" as="geometry" />
        </mxCell>
        <mxCell id="uPG0emXFFRcszsX7qazF-44" style="edgeStyle=orthogonalEdgeStyle;rounded=0;orthogonalLoop=1;jettySize=auto;html=1;entryX=0;entryY=0.5;entryDx=0;entryDy=0;exitX=1.018;exitY=0.731;exitDx=0;exitDy=0;exitPerimeter=0;strokeWidth=2;flowAnimation=1;endArrow=block;endFill=0;curved=1;" parent="1" source="uPG0emXFFRcszsX7qazF-2" target="uPG0emXFFRcszsX7qazF-16" edge="1">
          <mxGeometry relative="1" as="geometry" />
        </mxCell>
        <mxCell id="MWhpINrtDLKid73B6On_-10" style="edgeStyle=orthogonalEdgeStyle;rounded=1;orthogonalLoop=1;jettySize=auto;html=1;entryX=0.237;entryY=0.031;entryDx=0;entryDy=0;curved=0;flowAnimation=1;entryPerimeter=0;strokeWidth=2;" edge="1" parent="1" target="uPG0emXFFRcszsX7qazF-62">
          <mxGeometry relative="1" as="geometry">
            <mxPoint x="380" y="300" as="sourcePoint" />
            <Array as="points">
              <mxPoint x="380" y="300" />
              <mxPoint x="380" y="250" />
              <mxPoint x="671" y="250" />
            </Array>
          </mxGeometry>
        </mxCell>
        <mxCell id="uPG0emXFFRcszsX7qazF-2" value="" style="aspect=fixed;sketch=0;html=1;dashed=0;whitespace=wrap;verticalLabelPosition=bottom;verticalAlign=top;fillColor=#2875E2;strokeColor=#ffffff;points=[[0.005,0.63,0],[0.1,0.2,0],[0.9,0.2,0],[0.5,0,0],[0.995,0.63,0],[0.72,0.99,0],[0.5,1,0],[0.28,0.99,0]];shape=mxgraph.kubernetes.icon2;kubernetesLabel=1;prIcon=api" parent="1" vertex="1">
          <mxGeometry x="350" y="310" width="50" height="48" as="geometry" />
        </mxCell>
        <mxCell id="uPG0emXFFRcszsX7qazF-13" value="Schedular" style="aspect=fixed;sketch=0;html=1;dashed=0;whitespace=wrap;verticalLabelPosition=bottom;verticalAlign=top;fillColor=#2875E2;strokeColor=#ffffff;points=[[0.005,0.63,0],[0.1,0.2,0],[0.9,0.2,0],[0.5,0,0],[0.995,0.63,0],[0.72,0.99,0],[0.5,1,0],[0.28,0.99,0]];shape=mxgraph.kubernetes.icon2;prIcon=sched" parent="1" vertex="1">
          <mxGeometry x="289" y="480" width="50" height="48" as="geometry" />
        </mxCell>
        <mxCell id="uPG0emXFFRcszsX7qazF-16" value="etcd" style="shape=datastore;whiteSpace=wrap;html=1;fillColor=#dae8fc;strokeColor=#6c8ebf;" parent="1" vertex="1">
          <mxGeometry x="445" y="362" width="40" height="64" as="geometry" />
        </mxCell>
        <mxCell id="uPG0emXFFRcszsX7qazF-19" value="CONTROL PLANE" style="text;html=1;align=center;verticalAlign=middle;whiteSpace=wrap;rounded=0;" parent="1" vertex="1">
          <mxGeometry x="285" y="590" width="160" height="30" as="geometry" />
        </mxCell>
        <mxCell id="uPG0emXFFRcszsX7qazF-37" value="NODE 1" style="text;html=1;align=center;verticalAlign=middle;whiteSpace=wrap;rounded=0;" parent="1" vertex="1">
          <mxGeometry x="697.5" y="600" width="160" height="30" as="geometry" />
        </mxCell>
        <mxCell id="uPG0emXFFRcszsX7qazF-40" style="edgeStyle=orthogonalEdgeStyle;rounded=0;orthogonalLoop=1;jettySize=auto;html=1;exitX=0.5;exitY=1;exitDx=0;exitDy=0;" parent="1" edge="1">
          <mxGeometry relative="1" as="geometry">
            <mxPoint x="375" y="239.9999999999999" as="sourcePoint" />
            <mxPoint x="375" y="239.9999999999999" as="targetPoint" />
          </mxGeometry>
        </mxCell>
        <mxCell id="uPG0emXFFRcszsX7qazF-58" style="edgeStyle=orthogonalEdgeStyle;rounded=1;orthogonalLoop=1;jettySize=auto;html=1;flowAnimation=1;strokeWidth=2;endArrow=block;endFill=0;curved=0;" parent="1" source="uPG0emXFFRcszsX7qazF-48" edge="1">
          <mxGeometry relative="1" as="geometry">
            <mxPoint x="370" y="360" as="targetPoint" />
          </mxGeometry>
        </mxCell>
        <mxCell id="uPG0emXFFRcszsX7qazF-48" value="Control&lt;div&gt;Manager&lt;/div&gt;" style="aspect=fixed;sketch=0;html=1;dashed=0;whitespace=wrap;verticalLabelPosition=bottom;verticalAlign=top;fillColor=#2875E2;strokeColor=#ffffff;points=[[0.005,0.63,0],[0.1,0.2,0],[0.9,0.2,0],[0.5,0,0],[0.995,0.63,0],[0.72,0.99,0],[0.5,1,0],[0.28,0.99,0]];shape=mxgraph.kubernetes.icon2;prIcon=c_m" parent="1" vertex="1">
          <mxGeometry x="395" y="480" width="50" height="48" as="geometry" />
        </mxCell>
        <mxCell id="uPG0emXFFRcszsX7qazF-57" value="" style="endArrow=block;html=1;rounded=1;flowAnimation=1;strokeWidth=2;endFill=0;jumpStyle=none;startArrow=none;startFill=0;curved=0;" parent="1" edge="1">
          <mxGeometry width="50" height="50" relative="1" as="geometry">
            <mxPoint x="310" y="470" as="sourcePoint" />
            <mxPoint x="350" y="350" as="targetPoint" />
            <Array as="points">
              <mxPoint x="310" y="350" />
              <mxPoint x="330" y="350" />
            </Array>
          </mxGeometry>
        </mxCell>
        <mxCell id="uPG0emXFFRcszsX7qazF-59" value="API server" style="text;html=1;align=center;verticalAlign=middle;whiteSpace=wrap;rounded=0;" parent="1" vertex="1">
          <mxGeometry x="350" y="310" width="160" height="30" as="geometry" />
        </mxCell>
        <mxCell id="MWhpINrtDLKid73B6On_-11" style="edgeStyle=orthogonalEdgeStyle;rounded=1;orthogonalLoop=1;jettySize=auto;html=1;curved=0;flowAnimation=1;exitX=0.246;exitY=0.138;exitDx=0;exitDy=0;exitPerimeter=0;strokeWidth=2;" edge="1" parent="1" source="uPG0emXFFRcszsX7qazF-20">
          <mxGeometry relative="1" as="geometry">
            <mxPoint x="360" y="300" as="targetPoint" />
            <Array as="points">
              <mxPoint x="690" y="230" />
              <mxPoint x="360" y="230" />
            </Array>
          </mxGeometry>
        </mxCell>
        <mxCell id="uPG0emXFFRcszsX7qazF-62" value="Kubelet" style="rounded=1;whiteSpace=wrap;html=1;fillColor=#f8cecc;strokeColor=#b85450;" parent="1" vertex="1">
          <mxGeometry x="640" y="358" width="130" height="28" as="geometry" />
        </mxCell>
        <mxCell id="uPG0emXFFRcszsX7qazF-63" value="" style="rounded=1;whiteSpace=wrap;html=1;fillColor=#dae8fc;strokeColor=#6c8ebf;" parent="1" vertex="1">
          <mxGeometry x="627.5" y="415" width="300" height="130" as="geometry" />
        </mxCell>
        <mxCell id="MWhpINrtDLKid73B6On_-7" style="edgeStyle=orthogonalEdgeStyle;rounded=0;orthogonalLoop=1;jettySize=auto;html=1;curved=0;flowAnimation=1;strokeWidth=2;" edge="1" parent="1">
          <mxGeometry relative="1" as="geometry">
            <mxPoint x="880" y="180" as="targetPoint" />
            <mxPoint x="880" y="360" as="sourcePoint" />
            <Array as="points">
              <mxPoint x="880" y="358" />
              <mxPoint x="880" y="180" />
            </Array>
          </mxGeometry>
        </mxCell>
        <mxCell id="uPG0emXFFRcszsX7qazF-85" value="kube-proxy" style="rounded=1;whiteSpace=wrap;html=1;fillColor=#f8cecc;strokeColor=#b85450;" parent="1" vertex="1">
          <mxGeometry x="790" y="358" width="130" height="28" as="geometry" />
        </mxCell>
        <mxCell id="uPG0emXFFRcszsX7qazF-88" value="CLI" style="text;html=1;align=center;verticalAlign=middle;whiteSpace=wrap;rounded=0;" parent="1" vertex="1">
          <mxGeometry x="80" y="332" width="60" height="30" as="geometry" />
        </mxCell>
        <mxCell id="uPG0emXFFRcszsX7qazF-92" value="" style="aspect=fixed;sketch=0;html=1;dashed=0;whitespace=wrap;verticalLabelPosition=bottom;verticalAlign=top;fillColor=#2875E2;strokeColor=#ffffff;points=[[0.005,0.63,0],[0.1,0.2,0],[0.9,0.2,0],[0.5,0,0],[0.995,0.63,0],[0.72,0.99,0],[0.5,1,0],[0.28,0.99,0]];shape=mxgraph.kubernetes.icon2;kubernetesLabel=1;prIcon=pod" parent="1" vertex="1">
          <mxGeometry x="670" y="463" width="35.42" height="34" as="geometry" />
        </mxCell>
        <mxCell id="uPG0emXFFRcszsX7qazF-93" value="" style="aspect=fixed;sketch=0;html=1;dashed=0;whitespace=wrap;verticalLabelPosition=bottom;verticalAlign=top;fillColor=#2875E2;strokeColor=#ffffff;points=[[0.005,0.63,0],[0.1,0.2,0],[0.9,0.2,0],[0.5,0,0],[0.995,0.63,0],[0.72,0.99,0],[0.5,1,0],[0.28,0.99,0]];shape=mxgraph.kubernetes.icon2;kubernetesLabel=1;prIcon=pod" parent="1" vertex="1">
          <mxGeometry x="754.58" y="463" width="35.42" height="34" as="geometry" />
        </mxCell>
        <mxCell id="uPG0emXFFRcszsX7qazF-94" value="" style="aspect=fixed;sketch=0;html=1;dashed=0;whitespace=wrap;verticalLabelPosition=bottom;verticalAlign=top;fillColor=#2875E2;strokeColor=#ffffff;points=[[0.005,0.63,0],[0.1,0.2,0],[0.9,0.2,0],[0.5,0,0],[0.995,0.63,0],[0.72,0.99,0],[0.5,1,0],[0.28,0.99,0]];shape=mxgraph.kubernetes.icon2;kubernetesLabel=1;prIcon=pod" parent="1" vertex="1">
          <mxGeometry x="854.58" y="463" width="35.42" height="34" as="geometry" />
        </mxCell>
        <mxCell id="MWhpINrtDLKid73B6On_-5" style="edgeStyle=orthogonalEdgeStyle;rounded=0;orthogonalLoop=1;jettySize=auto;html=1;entryX=0.5;entryY=0;entryDx=0;entryDy=0;curved=0;flowAnimation=1;strokeWidth=2;" edge="1" parent="1" target="uPG0emXFFRcszsX7qazF-85">
          <mxGeometry relative="1" as="geometry">
            <mxPoint x="855" y="180" as="sourcePoint" />
            <Array as="points">
              <mxPoint x="855" y="180" />
            </Array>
          </mxGeometry>
        </mxCell>
        <mxCell id="MWhpINrtDLKid73B6On_-2" value="users" style="sketch=0;outlineConnect=0;gradientColor=none;fontColor=#545B64;strokeColor=none;fillColor=#879196;dashed=0;verticalLabelPosition=bottom;verticalAlign=top;align=center;html=1;fontSize=12;fontStyle=0;aspect=fixed;shape=mxgraph.aws4.illustration_users;pointerEvents=1;strokeWidth=1;" vertex="1" parent="1">
          <mxGeometry x="850" y="105" width="40" height="40" as="geometry" />
        </mxCell>
        <mxCell id="MWhpINrtDLKid73B6On_-3" value="&lt;b&gt;&lt;font style=&quot;font-size: 23px;&quot;&gt;&amp;gt;_&lt;/font&gt;&lt;/b&gt;" style="rounded=1;whiteSpace=wrap;html=1;fillStyle=solid;glass=0;fillColor=#f5f5f5;strokeColor=#666666;fontColor=#333333;" vertex="1" parent="1">
          <mxGeometry x="80" y="290" width="60" height="50" as="geometry" />
        </mxCell>
        <mxCell id="MWhpINrtDLKid73B6On_-12" value="" style="endArrow=block;html=1;rounded=0;strokeWidth=2;flowAnimation=1;endFill=0;" edge="1" parent="1">
          <mxGeometry width="50" height="50" relative="1" as="geometry">
            <mxPoint x="154" y="310" as="sourcePoint" />
            <mxPoint x="339" y="310" as="targetPoint" />
          </mxGeometry>
        </mxCell>
        <mxCell id="MWhpINrtDLKid73B6On_-13" value="" style="endArrow=block;html=1;rounded=0;flowAnimation=1;strokeWidth=2;endFill=0;" edge="1" parent="1">
          <mxGeometry width="50" height="50" relative="1" as="geometry">
            <mxPoint x="339" y="324.77000000000004" as="sourcePoint" />
            <mxPoint x="154" y="324.77000000000004" as="targetPoint" />
          </mxGeometry>
        </mxCell>
        <mxCell id="MWhpINrtDLKid73B6On_-15" value="" style="endArrow=classic;html=1;rounded=0;" edge="1" parent="1">
          <mxGeometry width="50" height="50" relative="1" as="geometry">
            <mxPoint x="670" y="390" as="sourcePoint" />
            <mxPoint x="670" y="410" as="targetPoint" />
          </mxGeometry>
        </mxCell>
        <mxCell id="MWhpINrtDLKid73B6On_-16" value="Replicaset" style="text;html=1;align=center;verticalAlign=middle;whiteSpace=wrap;rounded=0;" vertex="1" parent="1">
          <mxGeometry x="742.29" y="410" width="60" height="30" as="geometry" />
        </mxCell>
        <mxCell id="MWhpINrtDLKid73B6On_-19" value="" style="endArrow=classic;html=1;rounded=0;" edge="1" parent="1">
          <mxGeometry width="50" height="50" relative="1" as="geometry">
            <mxPoint x="830" y="390" as="sourcePoint" />
            <mxPoint x="830" y="410" as="targetPoint" />
          </mxGeometry>
        </mxCell>
        <mxCell id="MWhpINrtDLKid73B6On_-20" value="" style="endArrow=classic;html=1;rounded=0;" edge="1" parent="1">
          <mxGeometry width="50" height="50" relative="1" as="geometry">
            <mxPoint x="854.58" y="410" as="sourcePoint" />
            <mxPoint x="854.58" y="390" as="targetPoint" />
          </mxGeometry>
        </mxCell>
      </root>
    </mxGraphModel>
  </diagram>
</mxfile>
